<?xml version="1.0" encoding="UTF-8"?>
<svg version="1.1" viewBox="0 0 31.988001 19.193001" xmlns="http://www.w3.org/2000/svg" xmlns:cc="http://creativecommons.org/ns#" xmlns:dc="http://purl.org/dc/elements/1.1/" xmlns:rdf="http://www.w3.org/1999/02/22-rdf-syntax-ns#">
 <g fill="#ffffff">
  <path d="m15.994 0c-5.847 0-10.404 3.66-15.994 9.593 4.816 5.073 8.857 9.6 15.994 9.6s12.382-5.73 15.994-9.492c-3.697-4.407-8.943-9.7-15.994-9.7zm0 18.126c-6.336 0-10.16-3.929-14.524-8.532 5.192-5.414 9.32-8.527 14.524-8.527 6.161 0 10.975 4.443 14.558 8.591-3.523 3.674-8.293 8.469-14.558 8.469z"/>
  <path d="m15.994 3.199c-3.528 0-6.398 2.87-6.398 6.397s2.87 6.397 6.398 6.397 6.398-2.87 6.398-6.397-2.87-6.397-6.398-6.397zm0 11.728c-2.939 0-5.331-2.391-5.331-5.331s2.392-5.331 5.331-5.331 5.331 2.391 5.331 5.331c0 2.939-2.392 5.331-5.331 5.331z"/>
  <path d="m15.994 5.864c-2.058 0-3.732 1.674-3.732 3.732s1.674 3.732 3.732 3.732 3.732-1.674 3.732-3.732-1.674-3.732-3.732-3.732zm0 6.398c-1.47 0-2.666-1.196-2.666-2.666s1.196-2.666 2.666-2.666 2.666 1.196 2.666 2.666-1.196 2.666-2.666 2.666z"/>
 </g>
</svg>
