<svg version="1" xmlns="http://www.w3.org/2000/svg" width="933.333" height="933.333" viewBox="0 0 700.000000 700.000000"><path d="M198.5 58l-197 .5-.2 7.6c-.1 4.2-.4 22.3-.7 40.1L0 138.6l15.1 23.5c8.3 12.9 18.8 29 23.3 35.9 20.6 31.4 35.2 54.1 36.1 56 .5 1.1 1.3 2 1.7 2 .5 0 .8.4.8 1 0 .5 4.2 7.4 9.3 15.2 8.7 13.2 16.5 25.3 27.2 41.8 6.9 10.7 18.3 28.2 33.6 51.7 7.9 12.3 14.8 23.2 15.4 24.3.5 1.1 1.3 2 1.7 2 .5 0 .8.4.8 1 0 .5 4.8 8.2 10.6 17.2 13.6 20.8 26.1 40.1 32.7 50.3 2.8 4.4 21.7 33.6 42 65s37.4 57.9 38.1 59c.6 1.1 1.3 2.2 1.6 2.5.5.4 8.6 13 27.9 43.1l4.3 6.7h62.7l2.4-3.7c3.1-4.5 7.8-11.9 25.4-39.6 7.6-12.1 16.1-25.5 18.9-29.8 2.7-4.2 9.6-15.1 15.4-24.2 5.8-9.1 20.4-32 32.5-51 12.1-18.9 23-36.1 24.3-38.2 1.2-2.1 8.7-13.8 16.5-26 7.8-12.3 36.3-57.1 63.3-99.5 27.1-42.5 52.3-82.1 56-88 3.8-6 9.6-15.1 12.9-20.3 9.5-15 29.3-46.1 36-56.5 3.3-5.2 7.2-11.3 8.5-13.5l2.5-4 .2-42.3.3-42.2-3.8-.1c-20.5-.3-342.8-.3-497.7.1zm98.5 69.8c0 .3-21.2 31.6-41.5 61.2-13.8 20.1-19.2 28-31.5 46-7.3 10.7-16.7 24.4-20.8 30.5-15 21.9-18.5 27-19.2 27.8-.4.5-10.4-14-22.1-32.2-11.8-18.2-26.4-40.9-32.6-50.4-6.1-9.4-13.9-21.5-17.3-26.7-3.3-5.2-12.8-19.9-21-32.5-8.2-12.7-15-23.2-15-23.5 0-.3 49.7-.6 110.5-.6s110.5.2 110.5.4zm329.3.6c-.4.7-24.9 39.2-54.2 85.4-51.8 81.3-53.6 83.9-55.1 81.8-.9-1.1-6.4-9.1-12.1-17.6-5.8-8.5-12.1-17.8-14-20.5-1.9-2.8-7.8-11.3-13-19-5.2-7.7-9.7-14.2-10.1-14.3-.5-.2-.8-.9-.8-1.5-.1-.7-1.4-2.8-3-4.7-1.7-1.9-3-4-3-4.6 0-.7-.4-1.4-.8-1.6-.8-.3-8.9-12-33-47.6-4.3-6.2-11.2-16.3-15.5-22.5-4.3-6.2-8.2-11.9-8.7-12.8-.8-1.5 8.9-1.6 111.6-1.8 96.6-.1 112.4 0 111.7 1.3zM369.1 198c10.6 15.1 21.1 30 23.3 33.2 2.3 3.1 4.7 6.4 5.4 7.5.7 1 6.6 9.4 13.2 18.8 6.6 9.3 12.4 17.7 13 18.5.6.8 3.3 4.6 6 8.5 2.7 3.8 5.4 7.7 6 8.5.6.8 4.3 6.1 8.3 11.7 25.2 35.7 36.2 51.7 35.9 52.6-.3 1-21 34.3-22.5 36.2-1.4 1.7-55.7 86.9-56.4 88.5-.4.8-3.9 6.4-7.8 12.5-7.2 11-17.3 27-31.5 49.4-4.1 6.6-7.7 12.2-8 12.5-.3.3-3.3-3.6-6.7-8.7-5.6-8.5-42.5-65.6-53.4-82.7-2.7-4.1-5.2-8-5.6-8.6-.4-.5-1.2-1.8-1.8-2.7-1.2-2.1-24.9-38.6-35.7-55.1-4.3-6.5-7.8-11.9-7.8-12.1 0-.1-3.5-5.6-7.8-12.1-4.3-6.6-9.3-14.3-11.1-17.2l-3.4-5.4 1.8-3.1c1.1-1.8 3.3-5 5-7.3 1.6-2.3 4.7-6.5 6.8-9.5 2.1-3 8.1-11.6 13.5-19.1 8.9-12.7 16.8-23.9 29.7-42.3 37.6-53.8 71-100.5 71.6-100.3.4.2 9.4 12.7 20 27.8z"/></svg>